<svg xmlns="http://www.w3.org/2000/svg" xmlns:xlink="http://www.w3.org/1999/xlink" width="43" height="33" viewBox="0 0 43 33">
  <defs>
    <style>
      .cls-1 {
        fill-rule: evenodd;
        filter: url(#filter);
      }
    </style>
    <filter id="filter" x="0" y="0" width="43" height="33" filterUnits="userSpaceOnUse">
      <feFlood result="flood" flood-color="#d32f2f"/>
      <feComposite result="composite" operator="in" in2="SourceGraphic"/>
      <feBlend result="blend" in2="SourceGraphic"/>
    </filter>
  </defs>
  <path class="cls-1" d="M41.56,28.68H39.245a2.113,2.113,0,0,0,.143-0.616l0.638-8.2a0.678,0.678,0,0,0-.255-0.587l1.707-3.955a0.683,0.683,0,0,0,.006-0.528,0.692,0.692,0,0,0-.373-0.377l-2.05-.867a0.7,0.7,0,0,0-.53-0.007,0.684,0.684,0,0,0-.112-0.508,0.7,0.7,0,0,0-.447-0.287l-2.192-.4a0.7,0.7,0,0,0-.395.042l-0.059-.835a0.7,0.7,0,0,0-.743-0.64l-2.223.154a0.7,0.7,0,0,0-.477.236,0.685,0.685,0,0,0-.169.5l0.1,1.377-0.071-.242a0.7,0.7,0,0,0-.863-0.471l-2.141.613a0.694,0.694,0,0,0-.416.329,0.684,0.684,0,0,0-.059.524l1.515,5.187h-0.1a0.7,0.7,0,0,0-.511.221,0.685,0.685,0,0,0-.183.521L29.378,25H28.187a0.7,0.7,0,0,0-.539.252,0.685,0.685,0,0,0-.144.572L28.08,28.68H24.734a2.856,2.856,0,0,0,.435-1.517V27a2.152,2.152,0,0,0,0-4.093V21.055a1.423,1.423,0,0,0,.743-1.246V18.338c0-.921-0.649-2.234-3.74-3.254a26.88,26.88,0,0,0-8.1-1.113,26.879,26.879,0,0,0-8.1,1.113c-3.092,1.02-3.74,2.332-3.74,3.254v1.471a1.423,1.423,0,0,0,.743,1.246V22.91a2.153,2.153,0,0,0,0,4.093v0.159a2.856,2.856,0,0,0,.435,1.517H1.44A1.434,1.434,0,0,0,0,30.1v1.471A1.434,1.434,0,0,0,1.44,33H41.56A1.434,1.434,0,0,0,43,31.575V30.1A1.434,1.434,0,0,0,41.56,28.68Zm-4.01-9.886a0.672,0.672,0,0,0,.035-0.069l1.57-3.636,0.769,0.325-1.6,3.707H37.489Zm-1.887-2.031a0.682,0.682,0,0,0,.013-0.069l0.536-2.868,0.822,0.15L36.073,19.12h-0.85Zm-1.677-4.427,0.3,4.224L33.806,19.12H33.627l-0.475-6.726ZM38.579,20.5L38,27.958a0.79,0.79,0,0,1-.787.721H34.98l0.576-2.852a0.684,0.684,0,0,0-.144-0.572A0.7,0.7,0,0,0,34.874,25h-4.1l-0.35-4.5h8.154ZM30.6,13.982l1.5,5.138h-0.87l-1.434-4.908Zm3.428,12.4-0.457,2.261a0.046,0.046,0,0,1-.045.037H29.539a0.046,0.046,0,0,1-.045-0.037l-0.457-2.261h4.987Zm-30.4-8.043c0-.757,1.5-1.522,2.788-1.946a17.4,17.4,0,0,1,1.963-.512l0,0,2.229,2.206a0.7,0.7,0,0,0,.985,0,0.684,0.684,0,0,0,0-.975L10.061,15.6c0.512-.067,1.041-0.12,1.582-0.161l3.42,3.385a0.7,0.7,0,0,0,.985,0,0.684,0.684,0,0,0,0-.975l-2.521-2.5q0.27,0,.543,0,0.617,0,1.221.023l2.745,2.717a0.7,0.7,0,0,0,.985,0,0.684,0.684,0,0,0,0-.975l-1.609-1.593a21.111,21.111,0,0,1,4.319.87c1.286,0.424,2.788,1.188,2.788,1.946v1.471a0.046,0.046,0,0,1-.046.046H3.668a0.046,0.046,0,0,1-.046-0.046V18.338Zm20.153,2.9V22.8H22.531l-1.579-1.563h2.823ZM20.561,22.8H18.074l-1.579-1.563h2.488Zm-4.458,0H13.616l-1.579-1.563h2.488Zm-4.458,0H9.158L7.579,21.234h2.488Zm-4.458,0H4.365V21.234H5.609Zm-4.309,2.16a0.786,0.786,0,0,1,.789-0.781h20.8a0.781,0.781,0,1,1,0,1.563H3.668A0.786,0.786,0,0,1,2.879,24.957Zm20.9,2.16v0.046a1.526,1.526,0,0,1-1.532,1.517H5.9a1.526,1.526,0,0,1-1.532-1.517V27.117h19.41Zm17.832,4.458a0.046,0.046,0,0,1-.047.046H1.44a0.046,0.046,0,0,1-.046-0.046V30.1a0.046,0.046,0,0,1,.046-0.046H41.56a0.046,0.046,0,0,1,.047.046v1.471ZM12.631,8.046a3.268,3.268,0,0,0,.9,2.268,1.947,1.947,0,0,1,.59,1.406,0.7,0.7,0,0,0,1.393,0,3.269,3.269,0,0,0-.9-2.268,1.972,1.972,0,0,1,0-2.814,3.324,3.324,0,0,0,0-4.54A1.952,1.952,0,0,1,14.024.689a0.7,0.7,0,0,0-1.393,0,3.275,3.275,0,0,0,.9,2.27,1.976,1.976,0,0,1,0,2.817A3.271,3.271,0,0,0,12.631,8.046Zm3.76,0.689a0.7,0.7,0,0,0,.546-0.261,6.172,6.172,0,0,0,1.545-4.1,6.08,6.08,0,0,0-.514-2.493,0.7,0.7,0,0,0-.919-0.352,0.687,0.687,0,0,0-.356.909,4.723,4.723,0,0,1,.4,1.936,4.781,4.781,0,0,1-1.235,3.238,0.682,0.682,0,0,0-.159.439A0.693,0.693,0,0,0,16.391,8.735Zm-5.587,2.2a0.7,0.7,0,0,0,.279-0.058,0.687,0.687,0,0,0,.359-0.908,4.719,4.719,0,0,1-.389-1.922A4.788,4.788,0,0,1,12.293,4.8c0.013-.016.024-0.032,0.036-0.048a0.691,0.691,0,0,0,0-.769,0.7,0.7,0,0,0-.966-0.191,0.691,0.691,0,0,0-.2.2,6.14,6.14,0,0,0-1.5,4.053,6.077,6.077,0,0,0,.506,2.475A0.7,0.7,0,0,0,10.8,10.934Z"/>
</svg>
