<svg xmlns="http://www.w3.org/2000/svg" width="27" height="33" viewBox="0 0 27 33">
  <defs>
    <style>
      .cls-1 {
        fill-rule: evenodd;
      }
    </style>
  </defs>
  <path id="Forma_1" data-name="Forma 1" class="cls-1" d="M18.081,33H5.462a0.5,0.5,0,0,1-.5-0.443L2.349,9.9a0.5,0.5,0,0,1,.5-0.557H20.692a0.506,0.506,0,0,1,.376.167,0.5,0.5,0,0,1,.125.39L18.582,32.556A0.5,0.5,0,0,1,18.081,33ZM5.911,32h11.72l2.5-21.654H3.415ZM20.125,15.275H3.495a0.5,0.5,0,1,1,0-1h16.63A0.5,0.5,0,1,1,20.125,15.275ZM11.1,22.354H7.983a0.5,0.5,0,0,1-.5-0.5V18.765a0.5,0.5,0,0,1,.5-0.5H11.1a0.5,0.5,0,0,1,.5.5v3.089A0.5,0.5,0,0,1,11.1,22.354Zm-2.612-1h2.108V19.265H8.487v2.089Zm6.248,7.281a0.5,0.5,0,0,1-.262-0.073l-2.661-1.606a0.5,0.5,0,0,1-.168-0.687l1.62-2.639a0.505,0.505,0,0,1,.693-0.167l2.661,1.606a0.5,0.5,0,0,1,.168.687L15.166,28.4A0.5,0.5,0,0,1,14.735,28.635Zm-1.968-2.274,1.8,1.086,1.1-1.784-1.8-1.086ZM20.72,15.9c-0.2,0-.4-0.009-0.591-0.026a0.5,0.5,0,0,1-.455-0.545,0.507,0.507,0,0,1,.55-0.451c0.163,0.016.329,0.022,0.5,0.022a5.218,5.218,0,1,0-5.261-5.217,0.5,0.5,0,0,1-1.009,0A6.271,6.271,0,1,1,20.72,15.9ZM7.982,10.183a0.5,0.5,0,0,1-.5-0.415L5.962,1H0.512a0.5,0.5,0,1,1,0-1H6.386a0.5,0.5,0,0,1,.5.415L8.48,9.6a0.5,0.5,0,0,1-.411.578A0.515,0.515,0,0,1,7.982,10.183Zm12.71,0.163a0.5,0.5,0,0,1-.5-0.5V3.965a0.5,0.5,0,0,1,1.009,0V9.846A0.5,0.5,0,0,1,20.692,10.346Zm4.089,3.864a0.509,0.509,0,0,1-.357-0.146L16.3,6.009a0.5,0.5,0,0,1,0-.707,0.507,0.507,0,0,1,.713,0l8.123,8.055a0.5,0.5,0,0,1,0,.707A0.509,0.509,0,0,1,24.781,14.21Zm-4.088-3.864a0.508,0.508,0,0,1-.357-0.146,0.5,0.5,0,0,1,0-.707l4.113-4.078a0.508,0.508,0,0,1,.713,0,0.5,0.5,0,0,1,0,.707L21.048,10.2A0.5,0.5,0,0,1,20.692,10.346Zm5.793-.163H20.692a0.5,0.5,0,1,1,0-1h5.793A0.5,0.5,0,1,1,26.485,10.183Z"/>
</svg>
