<svg xmlns="http://www.w3.org/2000/svg" width="27" height="34" viewBox="0 0 27 34">
  <defs>
    <style>
      .cls-1 {
        fill-rule: evenodd;
      }
    </style>
  </defs>
  <path id="Forma_1" data-name="Forma 1" class="cls-1" d="M23.793,10.348c-2.443-1.946-5.9-1.407-8.644-.72a6.738,6.738,0,0,1-1.346.184c-0.072-.366-0.162-0.734-0.271-1.1l2.118-.319a6.2,6.2,0,0,0,5.213-5.278L21.175,0.99A0.575,0.575,0,0,0,21.208.761L21.32,0l-3.076.464a6.2,6.2,0,0,0-5.213,5.278L12.847,7a6.819,6.819,0,0,0-2.78-2.965A0.564,0.564,0,0,0,9.3,4.27a0.578,0.578,0,0,0,.234.777,6.851,6.851,0,0,1,3.1,4.728,6.649,6.649,0,0,1-.787-0.147c-2.741-.687-6.2-1.226-8.644.72C1.018,12.092-.032,15.543-0.005,20.9A15.386,15.386,0,0,0,5.467,32a7.638,7.638,0,0,0,6.572,1.842,6.6,6.6,0,0,1,2.921,0A6.545,6.545,0,0,0,16.418,34,8.179,8.179,0,0,0,21.532,32,15.39,15.39,0,0,0,27,20.9C27.031,15.542,25.981,12.092,23.793,10.348ZM15.482,7.257l-0.5.075,4.829-4.889-0.074.5A5.059,5.059,0,0,1,15.482,7.257ZM18.411,1.6l0.738-.111L14.044,6.661l0.11-.748A5.061,5.061,0,0,1,18.411,1.6ZM20.826,31.1a6.661,6.661,0,0,1-5.616,1.62,7.736,7.736,0,0,0-3.42,0A6.669,6.669,0,0,1,6.174,31.1,14.368,14.368,0,0,1,1.13,20.891c-0.026-4.977.883-8.13,2.778-9.64,1.6-1.278,3.971-1.434,7.671-.508a7.872,7.872,0,0,0,1.252.2c0.032,0.294.054,0.584,0.063,0.866a0.57,0.57,0,0,0,.566.556h0.018a0.571,0.571,0,0,0,.549-0.592C14.018,11.5,14,11.228,13.97,10.952a7.886,7.886,0,0,0,1.451-.207c3.7-.926,6.066-0.77,7.671.508,1.895,1.51,2.8,4.663,2.778,9.641A14.367,14.367,0,0,1,20.826,31.1ZM7.937,11.6c-2.816,0-5.106,2.577-5.106,5.744a0.567,0.567,0,1,0,1.135,0c0-2.534,1.782-4.6,3.971-4.6A0.574,0.574,0,0,0,7.937,11.6Zm7.193,0.168a2.412,2.412,0,0,1-3.444,0,0.562,0.562,0,0,0-.8,0,0.579,0.579,0,0,0,0,.812,3.536,3.536,0,0,0,5.049,0,0.579,0.579,0,0,0,0-.812A0.562,0.562,0,0,0,15.131,11.767Z"/>
</svg>
